<!DOCTYPE svg PUBLIC "-//W3C//DTD SVG 1.1//EN" "http://www.w3.org/Graphics/SVG/1.1/DTD/svg11.dtd">
<!-- Uploaded to: SVG Repo, www.svgrepo.com, Transformed by: SVG Repo Mixer Tools -->
<svg fill="#000000" width="800px" height="800px" viewBox="-15.36 -15.36 62.72 62.72" version="1.1" xmlns="http://www.w3.org/2000/svg">
<g id="SVGRepo_bgCarrier" stroke-width="0">
<path transform="translate(-15.36, -15.36), scale(1.96)" d="M16,29.571353159844875C17.875747898695494,29.489676294880148,19.554982037121537,28.567921707070806,21.348843275179373,28.013698693903144C23.337401708279177,27.39932294216119,26.062616447150415,27.832801961335377,27.221935603436982,26.104276202184582C28.447994324014843,24.27624285238764,26.29711391790549,21.659885224025697,27.007599786353634,19.57658597883543C27.73305782911869,17.44938505897652,30.9465138512842,16.6326542308783,31.213197103309938,14.401028552510606C31.46214439819357,12.317818708613576,29.880580537259732,10.268017716599262,28.282426705565417,8.908737635239962C26.727279042839296,7.586035652743691,24.409712732591494,7.8073677120806755,22.52844163281735,7.014370967738895C21.062883150195614,6.396606146123846,19.944045684713394,5.093503973837904,18.393329929715904,4.740267950742629C16.835950814375167,4.3855140873207095,15.247192604132668,5.17953489467804,13.660686151209593,4.994393631460705C11.315258154670003,4.720688156601409,8.834812649948805,2.1287987923850036,6.839747681702317,3.39199432214091C4.9171871444795014,4.609282939282789,6.587967785750815,7.955886914353334,5.684709113643224,10.044464029992614C4.909955982019665,11.83590175536005,2.432891649295078,12.622752983172893,2.0224427997782612,14.530899539588434C1.61685090601421,16.416466465423422,3.022987214453039,18.190769723595114,3.5322663786731425,20.051012220954313C4.063289843075161,21.99068005929654,3.8353608032719215,24.24995716351626,5.109250938343427,25.806074500548476C6.383181615636087,27.362241361830456,8.538945130440819,27.831585739008602,10.439661827494671,28.488724010790307C12.24398029787709,29.112534346759233,14.092696399782154,29.654404074474755,16,29.571353159844875" fill="#fff8d6" strokewidth="0"/>
</g>
<g id="SVGRepo_tracerCarrier" stroke-linecap="round" stroke-linejoin="round"/>
<g id="SVGRepo_iconCarrier"> <title>css3</title> <path d="M24.235 6.519l-16.47-0.004 0.266 3.277 12.653 0.002-0.319 3.394h-8.298l0.3 3.215h7.725l-0.457 4.403-3.636 1.005-3.694-1.012-0.235-2.637h-3.262l0.362 4.817 6.829 2.128 6.714-1.912 1.521-16.675zM2.879 1.004h26.242l-2.387 26.946-10.763 3.045-10.703-3.047z"/> </g>
</svg>