<!DOCTYPE svg PUBLIC "-//W3C//DTD SVG 1.1//EN" "http://www.w3.org/Graphics/SVG/1.1/DTD/svg11.dtd">
<!-- Uploaded to: SVG Repo, www.svgrepo.com, Transformed by: SVG Repo Mixer Tools -->
<svg width="800px" height="800px" viewBox="-14.2 -14.2 48.40 48.40" version="1.1" xmlns="http://www.w3.org/2000/svg" xmlns:xlink="http://www.w3.org/1999/xlink" fill="#252546" stroke="#252546">
<g id="SVGRepo_bgCarrier" stroke-width="0">
<path transform="translate(-14.2, -14.2), scale(1.5125)" d="M16,28.191628585259117C17.844964868712086,27.6315370071184,19.655912152133958,27.10762668705632,21.307972544597483,26.113496714497792C22.895479558638772,25.158211840225146,23.993427831407853,23.675713264025166,25.436232218959752,22.513360817516197C27.450241075829084,20.89083447765324,31.337770311397342,20.464426455745578,31.522169605903727,17.88473261746113C31.711396324595473,15.23750448378201,27.435171341091383,14.477286877769986,26.177724194653138,12.140098349490037C25.14681581198341,10.223972290030517,26.42816314627527,7.475433077640506,25.026436094677557,5.811259876913562C23.64073607747902,4.166114461306294,21.049482542690793,4.4333974620065755,19.040049795902274,3.6660331337428875C16.740560826387565,2.7879018246649814,14.652512614649938,0.2569870477320092,12.289868777170403,0.9474059163347324C9.895103393096962,1.64721143962714,9.286288556323779,4.804244745983196,7.945335899794829,6.908163705481144C6.911176705476356,8.530731903897465,6.1730621464381255,10.229311705927861,5.285781080084984,11.936632738129084C4.2836718698964,13.864908000611209,2.211794875168599,15.48815010677825,2.359647427572378,17.656238661195015C2.5066054169677026,19.81120947237163,5.044304967878606,20.959472924769166,6.032086882673797,22.880353643729578C7.199418103390245,25.15039321514618,6.42725731086537,28.746722725921177,8.680011032863728,29.947073717372916C10.927096891014703,31.144404660107305,13.563621400219784,28.931260628145523,16,28.191628585259117" fill="#fff8d6" strokewidth="0"/>
</g>
<g id="SVGRepo_tracerCarrier" stroke-linecap="round" stroke-linejoin="round"/>
<g id="SVGRepo_iconCarrier"> <title>html [#fff8d6]</title> <desc>Created with Sketch.</desc> <defs> </defs> <g id="Page-1" stroke-width="0.8400000000000001" fill="none" fill-rule="evenodd"> <g id="Dribbble-Light-Preview" transform="translate(-61.000000, -7639.000000)" fill="#252546"> <g id="icons" transform="translate(56.000000, 160.000000)"> <path d="M19.4350881,7485 L19.4279481,7485 L10.8119794,7485 L11.0180201,7487 L19.2300674,7487 C19.109707,7488.752 18.7455658,7492.464 18.6119454,7494.153 L13.99949,7495.451 L13.99949,7495.455 L13.98929,7495.46 L9.37377458,7493.836 L9.05757353,7490 L11.3199411,7490 L11.4800816,7492.063 L13.99337,7493 L13.99949,7493 L16.5086984,7492.1 L16.7667592,7489 L8.95659319,7489 C8.91885306,7488.599 8.43333144,7483.392 8.34867116,7483 L19.6370488,7483 C19.5738086,7483.66 19.5095484,7484.338 19.4350881,7485 L19.4350881,7485 Z M5,7479 L6.63812546,7497.148 L13.98929,7499 L21.3598345,7497.111 L23,7479 L5,7479 Z" id="html-[#fff8d6]"> </path> </g> </g> </g> </g>
</svg>