<!DOCTYPE svg PUBLIC "-//W3C//DTD SVG 1.1//EN" "http://www.w3.org/Graphics/SVG/1.1/DTD/svg11.dtd">
<!-- Uploaded to: SVG Repo, www.svgrepo.com, Transformed by: SVG Repo Mixer Tools -->
<svg width="800px" height="800px" viewBox="-14.8 -14.8 49.60 49.60" version="1.1" xmlns="http://www.w3.org/2000/svg" xmlns:xlink="http://www.w3.org/1999/xlink" fill="#000000">
<g id="SVGRepo_bgCarrier" stroke-width="0">
<path transform="translate(-14.8, -14.8), scale(1.55)" d="M16,28.87124691075749C17.791020204902757,28.79654543830157,18.65523772623917,26.293499754448174,20.400163141726026,25.88292822749456C22.67708160690699,25.347181608927833,25.687726244024596,27.86691505345592,27.333329470818875,26.204575690885214C28.93243338582855,24.58920854801693,26.925091073639436,21.751719807983847,26.731743131907294,19.486954718468898C26.600126842048514,17.94527821644233,26.65281593132527,16.43121422023497,26.369100843413555,14.910163585460339C26.100072551911094,13.467851664109558,25.64978978045232,12.106184141223537,25.101219763196312,10.74540831976467C24.493957018575948,9.239040063829714,23.83788705094098,7.793128083179423,22.95138974887034,6.432232827506212C21.798711976800703,4.662713949484247,21.192261129077817,1.4451838178040088,19.081239023999448,1.5039101131922248C16.642032679188652,1.5717661304142003,16.05613945837491,5.337250448118091,14.019125570867896,6.680718517609147C12.827279195886945,7.4667747926035215,11.29671507299306,7.414007008421974,9.877958617223499,7.573732924370077C7.292082389338802,7.864855087971632,4.049956133458059,6.21636523165729,2.1692269158429145,8.014799436761265C0.5660716049295429,9.547805528354134,2.5861038237602227,12.368047785001064,2.545000918354539,14.585822611023264C2.5074403627814044,16.612464128924017,0.9214743978672024,18.814980025056272,1.9365457674834872,20.569493277214644C3.025021385791333,22.450883053476694,5.826625901230301,22.364369572261197,7.691367401228355,23.481126394518853C9.038461193131287,24.287874237225257,10.116045501307747,25.402358297881293,11.433322664827168,26.25692522935307C12.921071894318986,27.222083761707434,14.228145817182128,28.94514898962368,16,28.87124691075749" fill="#fff8d6" strokewidth="0"/>
</g>
<g id="SVGRepo_tracerCarrier" stroke-linecap="round" stroke-linejoin="round"/>
<g id="SVGRepo_iconCarrier"> <title>javascript [#fff8d6]</title> <desc>Created with Sketch.</desc> <defs> </defs> <g id="Page-1" stroke="none" stroke-width="1" fill="none" fill-rule="evenodd"> <g id="Dribbble-Light-Preview" transform="translate(-420.000000, -7479.000000)" fill="#252546"> <g id="icons" transform="translate(56.000000, 160.000000)"> <path d="M379.328,7337.432 C377.583,7337.432 376.455,7336.6 375.905,7335.512 L375.905,7335.512 L377.435,7334.626 C377.838,7335.284 378.361,7335.767 379.288,7335.767 C380.066,7335.767 380.563,7335.378 380.563,7334.841 C380.563,7334.033 379.485,7333.717 378.724,7333.391 C377.368,7332.814 376.468,7332.089 376.468,7330.558 C376.468,7329.149 377.542,7328.075 379.221,7328.075 C380.415,7328.075 381.275,7328.491 381.892,7329.578 L380.429,7330.518 C380.107,7329.941 379.758,7329.713 379.221,7329.713 C378.67,7329.713 378.321,7330.062 378.321,7330.518 C378.321,7331.082 378.67,7331.31 379.476,7331.659 C381.165,7332.383 382.443,7332.952 382.443,7334.814 C382.443,7336.506 381.114,7337.432 379.328,7337.432 L379.328,7337.432 Z M375,7334.599 C375,7336.546 373.801,7337.575 372.136,7337.575 C370.632,7337.575 369.731,7337 369.288,7336 L369.273,7336 L369.266,7336 L369.262,7336 L370.791,7334.931 C371.086,7335.454 371.352,7335.825 371.996,7335.825 C372.614,7335.825 373,7335.512 373,7334.573 L373,7328 L375,7328 L375,7334.599 Z M364,7339 L384,7339 L384,7319 L364,7319 L364,7339 Z" id="javascript-[#fff8d6]"> </path> </g> </g> </g> </g>
</svg>