<!DOCTYPE svg PUBLIC "-//W3C//DTD SVG 1.1//EN" "http://www.w3.org/Graphics/SVG/1.1/DTD/svg11.dtd">
<!-- Uploaded to: SVG Repo, www.svgrepo.com, Transformed by: SVG Repo Mixer Tools -->
<svg fill="#252546" width="800px" height="800px" viewBox="-23.04 -23.04 78.08 78.08" xmlns="http://www.w3.org/2000/svg" stroke="#252546" stroke-width="0.00032">
<g id="SVGRepo_bgCarrier" stroke-width="0">
<path transform="translate(-23.04, -23.04), scale(2.44)" d="M16,29.938256975263357C18.29472561152308,30.297718634230115,20.676648492872353,31.0278301329635,22.87270901236017,30.27132731658142C25.10751299895328,29.501478082046713,26.97663681636662,27.752718275839232,28.205607950492187,25.73364753564902C29.39449882712023,23.780424456909472,29.449963693833862,21.394936253873286,29.66145038753965,19.118136901660712C29.854427801245077,17.04060264729568,30.050735125521005,14.923302496344443,29.393704377958137,12.942974377820274C28.758700728361855,11.029037187931513,27.147683393083117,9.684815181661923,25.98503208840871,8.037202622357164C24.755698629969775,6.295093670555179,24.0525157933583,4.127293685226547,22.30788508567703,2.9015416524721296C20.489885510731845,1.6242417260610913,18.180492861588508,0.5951702529959573,16.000000000000004,1.0218650350968055C13.793360108976472,1.4536764590467985,12.729373014949916,4.039529044281922,10.778611114628042,5.157674259700141C8.9950197853073,6.18000000371449,6.753421824202868,6.10216089774941,5.072297182809406,7.28544780167522C3.155475046008443,8.63463421878206,0.353019190088684,10.102210404577212,0.4251328646707915,12.445138211867498C0.505942430029922,15.070590026271717,4.551362062835979,15.935287107514062,5.414887246552922,18.415982911658247C6.1433655548327115,20.508722205005935,3.8276955478326853,22.947510878640724,4.777833736652276,24.949378960633688C5.6847041855783464,26.86008524269898,8.158842494807669,27.410024830248958,10.091471411081866,28.269186037147854C11.985326568880996,29.11111014858216,13.952405453462504,29.61750763212027,16,29.938256975263357" fill="#fff8d6" strokewidth="0"/>
</g>
<g id="SVGRepo_tracerCarrier" stroke-linecap="round" stroke-linejoin="round"/>
<g id="SVGRepo_iconCarrier"> <path d="M23.749 30.005c-0.119 0.063-0.109 0.083 0.005 0.025 0.037-0.015 0.068-0.036 0.095-0.061 0-0.021 0-0.021-0.1 0.036zM23.989 29.875c-0.057 0.047-0.057 0.047 0.011 0.016 0.036-0.021 0.068-0.041 0.068-0.047 0-0.027-0.016-0.021-0.079 0.031zM24.145 29.781c-0.057 0.047-0.057 0.047 0.011 0.016 0.037-0.021 0.068-0.043 0.068-0.048 0-0.025-0.016-0.020-0.079 0.032zM24.303 29.688c-0.057 0.047-0.057 0.047 0.009 0.015 0.037-0.020 0.068-0.041 0.068-0.047 0-0.025-0.016-0.020-0.077 0.032zM24.516 29.547c-0.109 0.073-0.147 0.12-0.047 0.068 0.067-0.041 0.181-0.131 0.161-0.131-0.043 0.016-0.079 0.043-0.115 0.063zM14.953 0.011c-0.073 0.005-0.292 0.025-0.484 0.041-4.548 0.412-8.803 2.86-11.5 6.631-1.491 2.067-2.459 4.468-2.824 6.989-0.129 0.88-0.145 1.14-0.145 2.333 0 1.192 0.016 1.448 0.145 2.328 0.871 6.011 5.147 11.057 10.943 12.927 1.043 0.333 2.136 0.563 3.381 0.704 0.484 0.052 2.577 0.052 3.061 0 2.152-0.24 3.969-0.771 5.767-1.688 0.276-0.14 0.328-0.177 0.291-0.208-0.88-1.161-1.744-2.323-2.609-3.495l-2.557-3.453-3.203-4.745c-1.068-1.588-2.14-3.172-3.229-4.744-0.011 0-0.025 2.109-0.031 4.681-0.011 4.505-0.011 4.688-0.068 4.792-0.057 0.125-0.151 0.229-0.276 0.287-0.099 0.047-0.188 0.057-0.661 0.057h-0.541l-0.141-0.088c-0.088-0.057-0.161-0.136-0.208-0.229l-0.068-0.141 0.005-6.271 0.011-6.271 0.099-0.125c0.063-0.077 0.141-0.14 0.229-0.187 0.131-0.063 0.183-0.073 0.724-0.073 0.635 0 0.74 0.025 0.907 0.208 1.296 1.932 2.588 3.869 3.859 5.812 2.079 3.152 4.917 7.453 6.312 9.563l2.537 3.839 0.125-0.083c1.219-0.813 2.328-1.781 3.285-2.885 2.016-2.308 3.324-5.147 3.767-8.177 0.129-0.88 0.145-1.141 0.145-2.333 0-1.193-0.016-1.448-0.145-2.328-0.871-6.011-5.147-11.057-10.943-12.928-1.084-0.343-2.199-0.577-3.328-0.697-0.303-0.031-2.371-0.068-2.631-0.041zM21.5 9.688c0.151 0.072 0.265 0.208 0.317 0.364 0.027 0.084 0.032 1.823 0.027 5.74l-0.011 5.624-0.989-1.52-0.995-1.521v-4.083c0-2.647 0.011-4.131 0.025-4.204 0.047-0.167 0.161-0.307 0.313-0.395 0.124-0.063 0.172-0.068 0.667-0.068 0.463 0 0.541 0.005 0.645 0.063z"/> </g>
</svg>