<!DOCTYPE svg PUBLIC "-//W3C//DTD SVG 1.1//EN" "http://www.w3.org/Graphics/SVG/1.1/DTD/svg11.dtd">
<!-- Uploaded to: SVG Repo, www.svgrepo.com, Transformed by: SVG Repo Mixer Tools -->
<svg fill="#000000" width="800px" height="800px" viewBox="-11.76 -11.76 47.52 47.52" role="img" xmlns="http://www.w3.org/2000/svg">
<g id="SVGRepo_bgCarrier" stroke-width="0">
<path transform="translate(-11.76, -11.76), scale(1.485)" d="M16,28.791784839704633C18.355321621084382,29.306959416824824,20.621134735013424,27.650131146304435,22.65389839416547,26.35366800001399C24.692345848120567,25.053579823110635,26.55133987114605,23.47164908224822,27.68767143712817,21.33758069946089C28.868312779798465,19.120297085917493,30.081619014008414,16.448588055113113,29.175635343010697,14.105629628082049C28.26940020825209,11.762020892268907,25.073975892069317,11.437162059604391,23.208434645786987,9.75385582351127C21.657601862948876,8.35451581980386,21.116622691232656,5.933014992538063,19.199382237697886,5.1039047407433795C17.216149422948604,4.246256105501688,14.902294826405377,4.596457440177032,12.850762680132258,5.274682647492636C10.841583356443808,5.9389062453623085,9.209160686438407,7.316651269801561,7.781470255921581,8.878603438504172C6.32230806237714,10.474987012967542,4.855485827017169,12.212649836050929,4.55187472834611,14.354008079000863C4.248495566434282,16.493730480265835,4.916355510210694,18.719956532988185,6.132863166030221,20.506170404194528C7.256364810133553,22.155822349597674,9.457724063090438,22.518124706356627,10.986204719525606,23.80161774029908C12.829288048554549,25.349288365913207,13.648876654845296,28.27752854270693,16,28.791784839704633" fill="#fff8d6" strokewidth="0"/>
</g>
<g id="SVGRepo_tracerCarrier" stroke-linecap="round" stroke-linejoin="round"/>
<g id="SVGRepo_iconCarrier">
<title>Tailwind CSS icon</title>
<path d="M12.001,4.8c-3.2,0-5.2,1.6-6,4.8c1.2-1.6,2.6-2.2,4.2-1.8c0.913,0.228,1.565,0.89,2.288,1.624 C13.666,10.618,15.027,12,18.001,12c3.2,0,5.2-1.6,6-4.8c-1.2,1.6-2.6,2.2-4.2,1.8c-0.913-0.228-1.565-0.89-2.288-1.624 C16.337,6.182,14.976,4.8,12.001,4.8z M6.001,12c-3.2,0-5.2,1.6-6,4.8c1.2-1.6,2.6-2.2,4.2-1.8c0.913,0.228,1.565,0.89,2.288,1.624 c1.177,1.194,2.538,2.576,5.512,2.576c3.2,0,5.2-1.6,6-4.8c-1.2,1.6-2.6,2.2-4.2,1.8c-0.913-0.228-1.565-0.89-2.288-1.624 C10.337,13.382,8.976,12,6.001,12z"/>
</g>
</svg>