<!DOCTYPE svg PUBLIC "-//W3C//DTD SVG 1.1//EN" "http://www.w3.org/Graphics/SVG/1.1/DTD/svg11.dtd">
<!-- Uploaded to: SVG Repo, www.svgrepo.com, Transformed by: SVG Repo Mixer Tools -->
<svg fill="#000000" width="800px" height="800px" viewBox="-13.44 -13.44 58.88 58.88" version="1.1" xmlns="http://www.w3.org/2000/svg">
<g id="SVGRepo_bgCarrier" stroke-width="0">
<path transform="translate(-13.44, -13.44), scale(1.84)" d="M16,31.54771452397108C19.126096390138642,31.315057993803403,20.525088707592193,27.547247050720344,22.920313431888548,25.524994291645218C25.069412100291768,23.710542116190236,27.96264781727603,22.79626877135352,29.29768180085445,20.320678731335477C30.78432196831059,17.56396119686456,31.554767697828474,14.238973734032818,30.618418209139435,11.25018799608083C29.678090557816518,8.248704140719665,27.17996029871566,5.876819995393747,24.345471330652572,4.5134441426792975C21.774078831224976,3.2766164530777164,18.852398533898473,4.143799483220212,16,4.218797641141073C13.245085327643078,4.2912326544116555,10.17253909624686,3.2911488748504834,7.967398884273079,4.944073049956886C5.767393217076535,6.593148484223875,5.897311752282987,9.82652573644285,5.035616863439008,12.4374559618874C4.16856804796314,15.06460855217244,2.296735762462677,17.554967234831487,2.9154570818384986,20.25142571031546C3.551850876175297,23.02490285866395,6.1346075330654255,24.75441803469072,8.288513150568182,26.613951079509157C10.656309380906604,28.65814247672352,12.880500583279687,31.77988008113167,16,31.54771452397108" fill="#fff8d6" strokewidth="0"/>
</g>
<g id="SVGRepo_tracerCarrier" stroke-linecap="round" stroke-linejoin="round"/>
<g id="SVGRepo_iconCarrier"> <title>angular</title> <path d="M24.826 23.885h-3.297l-1.777-4.377h-7.507l-1.777 4.379h-3.299l8.83-19.571zM15.999 1.004l-14.145 4.976 2.157 18.458 11.989 6.557 11.992-6.551 2.154-18.462-14.147-4.977zM13.414 16.806h5.171l-2.587-6.133z"/> </g>
</svg>