<!DOCTYPE svg PUBLIC "-//W3C//DTD SVG 1.1//EN" "http://www.w3.org/Graphics/SVG/1.1/DTD/svg11.dtd">
<!-- Uploaded to: SVG Repo, www.svgrepo.com, Transformed by: SVG Repo Mixer Tools -->
<svg width="800px" height="800px" viewBox="-6.48 -6.48 36.96 36.96" xmlns="http://www.w3.org/2000/svg" fill="#252546">
<g id="SVGRepo_bgCarrier" stroke-width="0">
<path transform="translate(-6.48, -6.48), scale(1.155)" d="M16,29.246396789033163C18.08149024530562,29.11091669394005,19.39199515346302,26.946808052257772,21.28079638916716,26.06171687646208C23.278412591397977,25.125635069758967,26.226644361091587,25.73854504635111,27.430643735826735,23.89000369006692C28.64437487591327,22.02652082210159,26.537819926593535,19.51373113230917,26.96691513563031,17.331624585598462C27.444814687102003,14.901330054281225,30.814009591118374,13.028676027872917,30.028342730707486,10.679751364394027C29.256602654002737,8.372463897771295,25.50202278152816,8.941985125881635,23.63785017535992,7.378649367306881C21.84478741017529,5.874947870510466,21.743067139694663,2.4730304301396577,19.489682547650542,1.8418013499338404C17.25826729337727,1.2167264277544791,15.28027104104166,3.526687177436125,13.150965351988281,4.4410120529075865C11.351084388294812,5.213881794651478,9.414901421792154,5.6181151554193995,7.875244307857921,6.829046653350273C6.286631997713585,8.078481132588928,4.9333249672062225,9.64231934478507,4.162294236632917,11.510550380381066C3.3812855597304203,13.402958285023313,2.513197727698304,15.70830407761164,3.462036377683763,17.522384408590185C4.475617306984507,19.460245211085546,7.72216650410164,19.058140420851498,9.027674448718187,20.812648841074438C10.260354472176196,22.4692817934177,9.029938574543436,25.18197523609515,10.345649905997849,26.77346399549763C11.675734209600938,28.382338349343943,13.916921015689777,29.38198029201488,16,29.246396789033163" fill="#fff8d6" strokewidth="0"/>
</g>
<g id="SVGRepo_tracerCarrier" stroke-linecap="round" stroke-linejoin="round"/>
<g id="SVGRepo_iconCarrier"> <title>material_ui</title> <rect width="24" height="24" fill="none"/> <path d="M8,16.61V15.37l6-3.46V7.23L9,10.12,4,7.23V13l-1,.58L2,13V5l1.07-.62L9,7.81l3.93-2.27,2-1.16L16,5v8.06L10.92,16,15,18.33l5-2.9V11l1-.58L22,11v5.58l-7,4.06-7-4M22,9.75l-1,.58-1-.58V8.58L21,8l1,.58Z"/> </g>
</svg>