<!DOCTYPE svg PUBLIC "-//W3C//DTD SVG 1.1//EN" "http://www.w3.org/Graphics/SVG/1.1/DTD/svg11.dtd">
<!-- Uploaded to: SVG Repo, www.svgrepo.com, Transformed by: SVG Repo Mixer Tools -->
<svg width="800px" height="800px" viewBox="-9.75 -9.75 44.50 44.50" fill="none" xmlns="http://www.w3.org/2000/svg">
<g id="SVGRepo_bgCarrier" stroke-width="0">
<path transform="translate(-9.75, -9.75), scale(1.390625)" d="M16,28.18153908662498C18.300195628365646,29.180216198623704,21.56015804419311,31.65366190342377,23.237183433659112,29.789300955037184C25.303725985539934,27.491911031124005,22.27682035171578,23.718252884165867,22.760171110702018,20.666209204101747C22.989118201571436,19.220558175803742,24.917966870642633,18.549399258516754,25.24324531581498,17.122333177656127C25.575703485707415,15.663768109481659,24.51840179663954,14.247349857788638,24.56408059258444,12.752072645888436C24.643295292504245,10.159010959663549,27.15188514771398,7.2393378867850515,25.60886768087561,5.153830520631066C24.225994213690225,3.2847701475276496,21.053813238241858,4.647536888467309,18.7405556615684,4.881128601748532C16.948095483504947,5.062130427141586,15.42602477691835,6.322326829666889,13.62493022989895,6.3639631531821745C11.14917288247152,6.4211958143067225,8.754662118499569,4.392592732946626,6.402229432603274,5.166356572349226C4.046563673537232,5.941183836488225,1.5525119279756132,7.955322957840918,1.2899214222489679,10.421203061169454C1.0074309737731522,13.073955392596126,4.814024107613096,14.671027112712054,5.107720353162623,17.32256219653045C5.406407078947259,20.019152106990344,1.1362733554086792,22.982183523916405,2.9087499842179234,25.036237443773203C4.7976946900990916,27.225261668095165,8.637642375650323,23.995761889871265,11.448994317442171,24.671216859449597C13.339287966001256,25.125378510255864,14.21673745878198,27.407299077367814,16,28.18153908662498" fill="#fff8d6" strokewidth="0"/>
</g>
<g id="SVGRepo_tracerCarrier" stroke-linecap="round" stroke-linejoin="round"/>
<g id="SVGRepo_iconCarrier"> <path fill-rule="evenodd" clip-rule="evenodd" d="M20 5H5V20H20V5ZM11.0769 18H9.82349V13.0444H8.02637V12.011H12.874V13.0444H11.0769V18ZM18.2893 16.2153C18.2893 17.4023 17.3679 18.1536 15.8738 18.1536C14.4419 18.1536 13.5371 17.4688 13.4666 16.4062L13.4624 16.3398H14.6702L14.6743 16.3813C14.72 16.8296 15.2056 17.1326 15.907 17.1326C16.5752 17.1326 17.0359 16.813 17.0359 16.3523V16.3481C17.0359 15.9539 16.7412 15.7339 15.9983 15.5803L15.3674 15.4517C14.1223 15.1985 13.5869 14.6174 13.5869 13.7085V13.7043C13.5869 12.592 14.5415 11.8574 15.8696 11.8574C17.2683 11.8574 18.0901 12.5962 18.1689 13.5964L18.1731 13.6504H16.9944L16.9861 13.6006C16.9155 13.1731 16.5005 12.8743 15.8696 12.8743C15.2512 12.8784 14.8403 13.1606 14.8403 13.6089V13.613C14.8403 14.0032 15.1309 14.2356 15.8364 14.3809L16.4714 14.5095C17.7373 14.771 18.2893 15.2773 18.2893 16.2112V16.2153Z" fill="#252546"/> </g>
</svg>